# xmcd
#
# Track frame offsets: 
#        183
#        11120
#        20720
#        29570
#        39458
#        50670
#        60595
#        71120
#        82745
#        91545
#        101233
#        110658
#        120770
#        130183
#        138770
#        147770
#
# Disc length: 2125 seconds
#
# Revision: 0
# Processed by: cddbd v1.5.2PL0 Copyright (c) Steve Scherf et al.
# Submitted via: ExactAudioCopy v0.99pb3
#
DISCID=d4084b10
DTITLE=Winifred Atwell - The best of Winifred Atwell
DYEAR=1988
DGENRE=Instrumental
TTITLE0=The Black And White Rag
TTITLE1=Flirtation Waltz
TTITLE2=Poor People Of Paris
TTITLE3=Britannia Rag
TTITLE4=Jubilee Rag
TTITLE5=Coronation Rag
TTITLE6=Portrait Painter of Paree
TTITLE7=Twelfth Street Rag
TTITLE8=Swedish Polka
TTITLE9=Big Ben Boogie
TTITLE10=Bumble Boogie
TTITLE11=Cross Hands Boogie
TTITLE12=Port-Au-Prince
TTITLE13=Maple Leaf Rag
TTITLE14=Dixie Boogie
TTITLE15=Swanee River Boogie
EXTD=
EXTT0=
EXTT1=
EXTT2=
EXTT3=
EXTT4=
EXTT5=
EXTT6=
EXTT7=
EXTT8=
EXTT9=
EXTT10=
EXTT11=
EXTT12=
EXTT13=
EXTT14=
EXTT15=
PLAYORDER=
